<?xml version="1.0" encoding="utf-8"?>
<!-- Generator: Adobe Illustrator 26.0.1, SVG Export Plug-In . SVG Version: 6.00 Build 0)  -->
<svg version="1.1" xmlns="http://www.w3.org/2000/svg" xmlns:xlink="http://www.w3.org/1999/xlink" x="0px" y="0px"
	 viewBox="0 0 800 800" style="enable-background:new 0 0 800 800;" xml:space="preserve">
<style type="text/css">
	.st0{fill:#FBBD0D;}
	.st1{fill:#FBBD0C;}
	.st2{fill:#FBBC0A;}
	.st3{fill:#FBBE10;}
	.st4{fill:#FBC017;}
	.st5{fill:#FBC01A;}
	.st6{fill:#FBBF15;}
	.st7{fill:#FBC018;}
	.st8{fill:#FBBF13;}
	.st9{fill:#FBBF17;}
</style>
<g id="Background">
</g>
<g id="Objects_1_">
	<g id="XMLID_3_">
		<path id="XMLID_422_" d="M572.64,289.82c0.28-0.84,1.5-1.91,2.25-1.89c1.16,0.02,2.79,0.6,3.37,1.5c1.18,1.89,1.78,4.12,2.77,6.57
			c4.38-2.79,7.71-5.86,11.02-9c3.09-2.96,6.21-5.95,9.49-8.7c14.35-11.88,27.57-24.7,36.72-41.23c2.45-4.45,5.54-8.55,8.25-12.86
			c2-3.18,4.04-6.38,5.73-9.71c4.17-8.12,5.48-16.39,4.7-24.76l4.77-0.47c0.37,3.63,0.73,7.26,0.99,10.89
			c0.43,6.31-1.07,12.28-3.84,17.91c-1.65,3.37-3.35,6.74-5.24,9.99c-3.54,6.01-7.49,11.79-10.82,17.91
			c-7.6,13.94-18.79,24.72-30.34,35.2c-8.33,7.56-16.92,14.88-25.36,22.33c-0.56,0.49-0.82,1.33-1.33,2.19
			c1.29,1.7,2.71,3.29,3.78,5.09c0.97,1.61,0.34,3.91-1.01,5.15c-1.4,1.31-2.94,1.07-4.49,0.39c-0.97-0.45-2-0.9-2.75-1.61
			c-3.76-3.52-6.89-7.49-8.87-12.33C570.69,298.15,571.2,293.97,572.64,289.82z"/>
		<path id="XMLID_415_" d="M372.43,188.5c-1.72,0.54-3.01,0.71-3.99,1.33c-2.25,1.44-4.25,3.33-6.57,4.6
			c-0.92,0.52-2.66,0.24-3.69-0.32c-1.33-0.73-1.12-2.3-0.54-3.61c1.33-3.09,3.76-5.26,6.57-6.85c7.58-4.29,15.83-6.55,24.55-6.89
			c1.03-0.04,2.15,0.26,3.09,0.69c1.59,0.71,2.73,2.13,2.23,3.8c-0.32,1.03-1.65,2.04-2.75,2.47c-1.2,0.45-2.66,0.13-3.99,0.28
			c-2.88,0.34-5.76,0.75-9.06,1.2c0.17,4.42,0.34,8.4,0.47,12.35c0.6,17.52,3.63,34.66,8.35,51.52c0.49,1.8,1.1,3.61,1.8,5.35
			c3.37,8.2,10.14,12.37,19.09,11.73c2.13-0.17,4.23-0.62,6.34-1.03c18.81-3.78,35.54,1.68,51.2,11.66
			c4.94,3.14,8.01,7.8,9.96,13.29c4.42,12.46,5.5,25.08,2.23,37.97c-0.52,2.06-1.05,4.12-1.72,6.76c1.55,0,2.88,0.3,3.99-0.04
			c12.37-3.76,24.09-8.87,34.92-16.13c15.68-10.54,30.13-22.44,42.93-36.34c3.09-3.35,6.38-6.53,9.62-9.73
			c16.45-16.32,31.05-34.15,44.09-53.28c1.65-2.43,3.11-5,4.49-7.62c2.51-4.81,2.23-9.96,0.84-14.93
			c-1.98-6.96-8.68-10.52-15.85-8.68c-3.11,0.79-6.18,1.85-9.11,3.18c-12.2,5.63-24.01,11.75-33.8,21.37
			c-12.5,12.28-23.71,25.56-33.82,39.84c-4.66,6.57-9.41,13.08-14.41,19.39c-5.6,7.09-14.95,7.92-21.99,2.15
			c-2.06-1.68-3.76-3.82-5.6-5.76c-2.92-3.11-4.1-6.72-3.8-11.04c0.58-8.33,1.93-16.54,4.38-24.5
			c6.81-22.05,16.88-42.35,32.84-59.38c0.9-0.94,1.68-2,2.45-2.9c-1.03-2.04-2.41-1.2-3.54-0.99c-2.08,0.41-4.12,1.29-6.18,1.33
			c-1.01,0.04-2.38-1.14-2.99-2.15c-0.34-0.56,0.28-2.15,0.94-2.77c1.12-1.1,2.51-2.06,3.97-2.6c5.82-2.19,11.75-3.78,18.08-2.47
			c2.08,0.45,4.27,0.41,6.4,0.67c1.95,0.26,3.76,1.1,4.47,2.96c0.43,1.12,0.43,2.66-0.02,3.78c-0.3,0.71-1.74,1.35-2.64,1.33
			c-2.38-0.09-4.75-0.58-7.67-0.99c-2.81,3.39-5.71,6.85-8.55,10.35c-2.86,3.56-5.86,7.02-8.4,10.82
			c-11,16.45-18.79,34.32-22.98,53.69c-0.9,4.19-1.4,8.48-1.74,12.76c-0.45,5.52,5.71,12.56,11.15,12.65
			c1.4,0.04,3.2-0.88,4.12-1.95c3.44-4.1,6.64-8.42,9.88-12.71c7.28-9.62,14.13-19.63,21.93-28.82
			c7.09-8.38,15.14-15.93,22.89-23.73c2.06-2.08,4.49-3.89,7-5.41c10.09-6.12,20.34-11.83,31.55-15.85
			c12.99-4.66,28.75,1.4,30.75,19.67c0.62,5.73-0.11,11.27-2.96,16.36c-1.7,3.05-3.41,6.1-5.41,8.96
			c-9.88,14.07-20.06,27.92-31.98,40.35c-14.47,15.14-28.28,30.95-44.39,44.41c-17.61,14.73-36.55,27.08-58.88,33.89
			c-14.6,4.45-28.99,4.85-43.62,1.27c-5.48-1.33-10.82-3.11-16.23-4.64c-2.04-0.56-4.1-1.01-7.37-1.8c0,5.73,0.17,10.26-0.04,14.8
			c-0.21,4.51-0.79,8.98-1.27,13.94c2.1,0.17,3.93,0.11,5.6,0.56c0.82,0.21,1.78,1.35,1.95,2.21c0.17,0.86-0.26,2.19-0.9,2.81
			c-0.94,0.88-2.23,1.55-3.5,1.87c-3.97,1.1-8.03,0.86-11.94-0.17c-1.33-0.34-2.32-1.91-3.74-3.16c1.03-1.03,1.63-2.04,2.49-2.41
			c1.95-0.82,2.92-2.1,3.29-4.17c2.06-11.73,2.58-23.49,0-35.2c-2.64-11.92-8.96-21.82-17.89-29.91c-2.9-2.62-6.66-4.57-10.35-5.99
			c-7.67-2.94-15.44-4.64-23.26-5l0.32-6.36c8.53,0.32,16.77,2.3,24.87,4.96c7.07,2.32,12.95,6.46,17.72,12.13
			c5.91,7.04,10.93,14.65,13.68,23.51c1.05,3.41,2.94,5.33,6.51,6.25c7.52,1.93,14.88,4.51,22.42,6.42c7,1.8,14.17,2.77,21.54,2.13
			c9.15-15.1,9.04-30.6,3.41-46.54c-1.01-2.88-2.68-5.35-5.24-6.96c-3.61-2.28-7.24-4.7-11.17-6.29
			c-5.48-2.17-11.12-4.06-16.88-5.22c-4.12-0.82-8.53-0.43-12.78-0.21c-2.94,0.17-5.82,0.97-8.72,1.5
			c-14.28,2.68-26.52-3.95-31.16-17.7c-4.47-13.23-7.65-26.87-8.22-40.89C372.13,206.86,372.43,198.02,372.43,188.5z"/>
		<path id="XMLID_412_" d="M374.15,549.41c-5.15-0.04-10.48,1.7-16.45-1.12c1.35-1.25,1.93-2.15,2.75-2.45
			c1.74-0.64,3.56-1.18,5.41-1.42c7.97-0.99,15.96-1.93,23.97-2.73c2.1-0.21,4.32-0.09,6.4,0.3c3.37,0.64,5.22,2.64,5.22,6.18
			c-0.02,3.72-0.26,7.54-1.12,11.15c-2.49,10.42-5.43,20.7-9.36,30.75c-5.76,14.73-10.93,29.68-16.28,44.56
			c-0.52,1.44-0.56,3.05-0.86,4.7c3.52,1.18,6.74,0.47,9.86,0.09c9.04-1.07,18.06-2.43,27.1-3.63c1.57-0.21,3.2-0.45,4.75-0.24
			c2.1,0.3,3.69,2.49,3.8,4.64c0.09,2.19-1.16,3.61-2.99,4.32c-1.72,0.67-3.61,1.03-5.48,1.27c-15.16,1.89-30.34,3.74-45.51,5.58
			c-0.79,0.09-1.61,0.24-2.41,0.24c-5-0.04-8.16-3.11-7.8-8.14c0.24-3.18,0.97-6.4,2.02-9.41c3.74-10.61,7.43-21.26,11.7-31.68
			c5.41-13.14,11.4-26.05,17.07-39.06c1.89-4.36,4.34-8.55,4.4-13.98C384.78,548.64,379.46,549.43,374.15,549.41z"/>
		<path id="XMLID_410_" d="M336.46,561.05c0.04,8.03-0.11,16.08-0.45,24.12c-0.67,15.83-1.5,31.61-2.25,47.42
			c-0.19,4.04-0.24,8.05-0.6,12.07c-0.13,1.52-0.73,3.14-1.52,4.47c-1.29,2.15-4.7,2.13-6.21,0.15c-2.21-2.92-2.77-6.34-2.88-9.88
			c-0.43-12.33-0.88-24.67-1.18-33.69c0.54-19.95,0.62-36.59,2.88-53.11c0.17-1.33,0.21-2.71,0.62-3.95
			c1.25-3.78,5.86-4.6,8.33-1.44c0.94,1.22,1.7,2.79,2,4.29C335.84,554.65,336.44,557.85,336.46,561.05z"/>
		<path id="XMLID_409_" d="M329.27,527.33c2.94,0.19,5.65,3.11,5.45,5.91c-0.21,3.09-2.94,5.69-5.8,5.52
			c-3.14-0.17-5.37-2.64-5.35-5.93C323.6,529.76,326.28,527.16,329.27,527.33z"/>
		<path id="XMLID_406_" d="M309.02,567.25c0.82,15.59-0.84,31.1-2.13,46.6c-0.52,6.42-1.46,12.8-2.47,19.16
			c-0.45,2.88-1.37,5.73-2.3,8.53c-0.58,1.76-1.4,3.5-2.38,5.09c-3.99,6.34-10.52,7.15-15.44,1.63
			c-6.1-6.83-11.51-14.22-13.64-23.39c-1.5-6.53-3.29-13.06-4.1-19.67c-2.02-16.28-2.06-32.68-1.98-49.05
			c0-1.85,0.34-3.76,0.99-5.48c1.31-3.46,5.54-3.93,7.73-1.01c1.7,2.23,2.15,4.87,2.3,7.58c0.47,7.52,0.92,15.01,1.42,22.51
			c0.84,13.4,2.3,26.76,5.07,39.9c1.05,4.94,2.96,9.71,4.68,14.5c0.52,1.42,1.7,2.6,2.56,3.84c3.14-1.07,3.26-3.84,3.95-5.99
			c2.83-8.72,4.49-17.72,4.98-26.84c0.82-15.55,1.22-31.12,1.83-46.66c0.04-1.61,0-3.22,0.13-4.83c0.19-2.04,1.31-3.48,3.31-4.08
			c1.48-0.47,3.46,0.94,3.82,3.31C308.12,557.63,308.76,562.44,309.02,567.25z"/>
		<path id="XMLID_402_" d="M259.78,660.84c0.06,4.66-4.45,7.95-8.85,6.53c-1.12-0.37-2.3-1.52-2.83-2.62
			c-1.18-2.36-2.04-4.92-2.92-7.45c-1.59-4.49-3.09-9.02-4.98-14.62c-3.01,2.79-4.87,4.7-6.91,6.4c-4.85,4.02-10.22,6.76-16.77,6.81
			c-5.95,0.06-11.17-1.74-15.29-5.93c-2.6-2.64-5-5.65-6.85-8.87c-5.15-8.93-8.16-18.64-8.93-28.95
			c-1.27-16.79,0.52-33.18,6.38-49.07c3.54-9.58,7.62-18.88,13.08-27.55c3.63-5.73,8.18-10.52,13.92-14.26
			c7.92-5.15,16.26-5.07,24.65-1.95c2.3,0.86,4.27,3.2,5.8,5.3c3.84,5.3,5.84,11.45,6.79,17.87c2.66,18.4,3.39,36.85,1.59,55.36
			c-0.73,7.49-2.21,14.9-5.2,21.84c-1.61,3.76-1.37,7.09-0.15,10.84c2.32,7.13,4.36,14.35,6.27,21.6
			C259.3,654.94,259.75,657.92,259.78,660.84z M249.98,588.62c0.67-13.98,0.21-27.92-1.72-41.79c-0.79-5.6-1.98-11.1-4.94-16.06
			c-3.05-5.09-5.28-5.6-10.5-2.45c-4.04,2.45-7.09,5.88-9.21,9.94c-3.87,7.34-8.01,14.67-10.76,22.44
			c-6.12,17.18-7.26,35.15-6.1,53.21c0.54,8.59,1.91,17.14,7.09,24.44c1.25,1.76,2.41,3.61,3.95,5.05c2.77,2.58,5.67,2.62,8.72,0.41
			c4.19-3.05,7.34-7.02,10.07-11.32c-2.94-10.18-5.69-19.43-8.27-28.73c-0.71-2.56-1.18-5.26-1.31-7.9
			c-0.15-3.54,2.25-5.58,5.71-4.83c1.72,0.39,3.52,1.33,4.85,2.49c2.92,2.51,4.47,5.97,5.86,9.51c0.71,1.8,0.84,4.08,3.33,5.45
			c0.54-1.46,1.22-2.64,1.4-3.89C248.87,599.3,249.73,593.97,249.98,588.62z"/>
		<path id="XMLID_401_" d="M236.3,341.92c-5.09,7.58-9.84,14.71-14.67,21.78c-5.37,7.82-12,14.43-19.52,20.16
			c-11.32,8.59-23.82,14.26-37.97,16.45c-11.08,1.72-20.68-1.03-29.42-7.75c-12.99-9.99-19.54-23.17-20.04-39.49
			c-0.34-10.8,0.47-21.45,3.35-31.91c2.9-10.54,7.88-19.91,15.61-27.75c8.7-8.8,17.72-17.22,27.9-24.31
			c18.96-13.27,39.92-20.55,63.16-21c9.47-0.17,18.73,0.84,27.87,3.26c13.53,3.56,26.89,7.54,39.04,14.69
			c3.91,2.3,7.69,4.85,11.51,7.34c3.16,2.04,6.29,4.12,9.41,6.21c3.5,2.34,7.3,2.86,11.49,2.79c10.46-0.19,20.92-0.13,31.37,0.13
			c0.37,0,0.75,0.02,1.12,0.06l-0.32,6.36c-7.45-0.37-14.99,0.47-22.55,2.6c-2.79,0.77-5.45,2.21-7.9,3.76
			c-1.44,0.9-2.34,2.62-3.39,3.87c1.91,2.79,3.72,0.6,5.39,0.73c1.4,0.11,2.68,0.26,3.41,1.61c0.92,1.72,0.21,3.14-1.05,4.29
			c-5.91,5.28-15.27,6.08-21.63,1.68c-0.92-0.64-1.78-2.3-1.61-3.31c0.15-0.94,1.59-2,2.68-2.38c1.42-0.49,3.07-0.37,4.72-0.52
			c0.62-3.95-1.1-6.53-3.48-8.83c-12.11-11.7-25.75-21.07-41.81-26.44c-7.11-2.38-14.35-4.53-21.65-6.23
			c-18.53-4.29-36.68-2.56-54.63,3.63c-16.41,5.63-29.89,15.57-42.5,26.97c-3.2,2.88-6.14,6.01-9.23,9
			c-5.71,5.52-9.84,12.05-12.37,19.54c-4.72,13.98-5.99,28.28-3.33,42.86c2.19,12,9.79,19.99,19.63,26.26
			c5.48,3.48,11.55,3.87,17.85,3.11c12.61-1.52,23.84-6.44,33.74-14.15c5.67-4.45,11-9.47,15.87-14.8
			c5.8-6.31,10.95-13.21,16.34-19.91c0.84-1.01,1.44-2.21,2.21-3.39c-1.25-3.26-4.1-4.25-6.81-5.26c-2.32-0.86-4.55-1.61-5.24-4.64
			c1.85-2.68,4.51-3.65,7.6-2.96c11.38,2.51,19.11,9.3,23.06,20.27c0.34,0.92,0.39,2.28-0.04,3.11c-0.58,1.07-1.65,2.15-2.75,2.56
			c-0.71,0.28-2.13-0.39-2.75-1.05c-1.27-1.35-2.15-3.07-3.35-4.51C239.33,344.86,237.83,343.47,236.3,341.92z"/>
		<path id="XMLID_398_" d="M167.76,356.52c-0.26,0.64-1.76,0.86-2.75,1.12c-0.47,0.11-1.1-0.02-1.57-0.26
			c-5.67-2.75-10.39-6.66-13.79-11.98c-1.61-2.49-2.06-5.28-0.15-8.65c2.62,2.04,4.79,3.72,6.87,5.33c0.67-0.73,1.12-1.07,1.35-1.52
			c7.56-13.98,18.25-25,31.22-34.12c14.6-10.26,30.9-16,48.23-19.07c7.69-1.35,15.61-1.57,23.26,0.21
			c15.35,3.56,25.19,13.68,30.82,28.02c2.66,6.81,3.35,14.07,3.16,21.39c-0.04,2-0.43,4.17,1.37,6.34c2.04-1.42,3.72-2.64,5.45-3.8
			c13.98-9.28,29.08-14.77,46.15-14.02c10.67,0.45,19.93,4.14,27.62,11.47c11.25,10.74,15.76,24.25,14.26,39.45
			c-2.02,20.23-9.36,38.48-22.55,54.18c-1.72,2.06-3.48,4.08-5.15,6.18c-10.39,12.99-23.15,23.04-37.73,30.92
			c-2.83,1.52-5.65,3.11-8.25,5c-4.6,3.35-9.53,5.95-14.88,7.88c-3.01,1.07-5.82,2.75-8.7,4.17c-1.05,0.52-1.7,1.25-1.01,2.86
			c14.5,3.91,29.31,4.64,44.26,1.48c18.6-3.93,33.87-13.04,45.2-28.52c6.51-8.87,13.38-17.48,19.99-26.26
			c1.2-1.57,2.86-3.05,3.07-5.63c-2.32,0.13-4.12,0.41-5.91,0.28c-1.83-0.11-2.79-2.17-1.76-3.54c0.79-1.05,1.59-2.3,2.68-2.92
			c9.26-5.18,18.79-5.86,28.58-1.55c0.45,0.21,1.03,0.56,1.22,0.97c0.43,1.07,1.18,2.36,1.03,3.31c0,0.09-0.04,0.17-0.06,0.24
			c-0.37,0.94-1.93,1.95-3.03,2.02c-1.52,0.11-3.11-0.62-4.68-1.01c-1.72-0.41-3.44-0.84-5.6-1.35
			c-5.97,19.74-18.43,34.75-32.32,49.01c4.32,8.14,11.6,11.62,19.48,14.37c3.01-2.21,4.72-4.96,6.42-7.67
			c3.31-5.2,6.55-10.46,9.71-15.76c7.24-12.15,11-25.49,13.66-39.17c0.28-1.35,0.54-2.71,0.77-4.08c0.52-2.86,0.43-5.95,0.02-8.83
			c-0.41-2.88-1.25-5.8-2.49-8.42c-2.51-5.3-6.57-6.53-12-3.91c-1.68,0.79-3.16,2.02-4.81,2.9c-2.73,1.46-3.8,0.97-6.08-2.56
			c0.15-0.52,0.21-1.05,0.43-1.52c2.73-6.1,7.32-10.52,12.67-14.28c5.5-3.82,9.75-8.76,13.51-14.58c-1.85-0.92-3.37-1.46-4.64-2.34
			c-2.32-1.61-1.95-4.55,0.67-5.78c0.94-0.45,2.02-0.9,3.05-0.92c6.46-0.15,14.26,4.87,16.71,10.82c0.49,1.18,0.67,2.6,0.6,3.89
			c-0.09,1.72-1.1,3.09-2.75,3.63c-1.63,0.49-3.29,0.19-4.36-1.27c-1.05-1.44-1.93-3.03-3.07-4.87c-5.2,5.69-10.07,11-14.9,16.3
			c-0.19,0.19-0.34,0.47-0.37,0.71c-0.02,0.24,0.15,0.47,0.39,1.12c10.05,2.77,13.57,11,15.05,20.36c0.67,4.19,0.67,8.68-0.11,12.82
			c-3.03,16.15-7.09,31.98-15.85,46.17c-3.24,5.26-6.38,10.59-9.45,15.93c-0.62,1.05-0.82,2.34-1.35,3.97
			c9.84,0.92,19.01,3.16,28.5,1.07c0-1.91,0.26-3.54-0.04-5.05c-2.04-10.48-1.29-20.9,0.99-31.16c1.4-6.27,3.54-12.39,5.37-18.55
			c1.7-5.71,4.14-11.06,8.2-15.53c1.29-1.4,1.93-2.96,2.32-4.94c2.53-13.21,8.35-24.8,17.72-34.57
			c12.61-13.16,27.27-23.54,43.94-30.69c16.26-6.98,32.84-13.27,49.52-19.16c15.2-5.37,30.11-11.4,44.65-18.3
			c17.89-8.53,33.48-20.21,46.06-35.76c5.93-7.32,9.28-15.44,9.56-25.66c-2.15,1.1-3.84,1.74-5.28,2.75
			c-1.52,1.1-2.75,2.56-4.17,3.8c-1.65,1.44-3.54,2.17-6.38,1.76c0.56-1.87,0.6-3.56,1.44-4.7c6.23-8.63,14.6-13.27,25.4-12.84
			c2.08,0.09,4.25,0.75,6.16,1.63c1.35,0.62,2.56,1.91,3.41,3.2c1.03,1.5,0.69,3.05-1.44,4.32c-4.45-1.55-9.3-2.99-14.73-0.92
			c-0.26,2.13-0.67,4.19-0.75,6.27c-0.39,10.31-4.19,19.11-10.54,27.25c-12.33,15.81-27.7,27.77-45.63,36.21
			c-13.81,6.51-28.11,12-42.33,17.63c-16.19,6.42-32.68,12.15-48.77,18.81c-16.54,6.85-31.14,16.81-43.62,29.74
			c-4.12,4.25-7.86,8.85-10.29,14.3c-0.47,1.07-1.57,2.25-0.15,3.87c0.88-0.13,1.95-0.13,2.88-0.49c14.13-5.69,29.06-7.54,44.04-8.8
			c2.68-0.24,5.35-0.49,8.01-0.79c13.62-1.5,27.06-3.91,40.31-7.43c4.12-1.12,8.25-2.53,12.05-4.42c2.79-1.4,5.3-3.59,7.54-5.84
			c1.14-1.16,1.37-3.22,2.25-5.41c-22.05-3.59-41.38,1.78-59.55,12.58c1.57,6.81,1.57,6.81-2.73,9.41
			c-5.82-4.72-8.38-10.84-7.56-18.32c0.24-2.1,0.6-4.55,2.94-5.33c2.83-0.92,3.44,1.76,4.57,3.48c0.28,0.41,0.79,0.67,1.46,1.2
			c3.03-1.31,6.25-2.6,9.38-4.12c13.06-6.34,26.93-8.98,41.36-8.61c5.05,0.15,10.16,0.9,15.1,2.02c4.68,1.07,6.03,4.1,4.55,8.55
			c-2.75,8.25-7.58,14.75-15.85,18.23c-3.2,1.35-6.36,3.01-9.73,3.78c-11.23,2.58-22.48,5.15-33.84,7.07
			c-5.41,0.9-10.89,1.5-16.36,2.04c-4.14,0.41-8.29,0.79-12.41,1.25c-11.51,1.25-22.81,3.39-33.61,7.77
			c-1.72,0.69-3.69,1.16-5.09,2.32c-6.68,5.5-12.91,11.51-15.33,20.19c-2.25,7.99-4.21,16.08-6.06,24.18
			c-1.59,6.89-1.12,13.92-0.41,20.85c0.32,3.29,0.54,6.98,3.89,9.77c1.33-1.46,2.68-2.68,3.72-4.14
			c4.85-6.85,8.03-14.56,11.08-22.31c3.54-9,7.95-17.42,13.7-25.36c6.25-8.63,13.87-14.8,23.69-18.49c5.26-2,10.52-3.93,15.87-5.91
			c0.45-2.02,0.9-3.99,1.37-6.1c1.2,0.13,2.02,0.04,2.71,0.32c0.99,0.37,1.89,0.97,2.81,1.52c5.15,3.09,6.44,12.03,4.4,16.69
			c-0.45,1.01-1.87,1.87-3.03,2.23c-1.44,0.45-2.58-0.54-3.09-1.91c-0.6-1.7-1.1-3.44-1.74-5.5c-12,2.86-23.11,6.34-31.12,16.02
			c-1.35,1.65-2.92,3.16-4.51,4.6c-3.87,3.52-6.46,7.86-8.18,12.76c-2.1,6.08-4.29,12.13-6.27,18.25
			c-1.74,5.41-3.93,10.57-7.58,15.01c-6.23,7.6-8.76,16.51-8.87,26.13c-0.11,8.03,0.02,16.11,0.58,24.14
			c0.99,14.75,2.58,29.42,7.54,43.49c0.39,1.14,0.15,2.79,3.26,3.07c0.64-0.86,1.76-2.34,2.86-3.82c5.2-7.19,10.59-14.22,15.48-21.6
			c3.22-4.9,5.97-10.16,8.48-15.48c6.42-13.62,11.06-27.92,15.59-42.26c1.85-5.86,3.52-11.81,5.3-17.72
			c1.72-5.67,1.42-11.19-1.42-16.39c-2.94-5.37-5.33-11.36-12.37-12.82c-0.49-0.09-0.92-0.52-1.35-0.82
			c-1.48-1.05-1.87-2.62-1.74-4.25c0.15-1.8,1.25-2.94,2.99-3.35c1.57-0.37,3.22-0.39,4.75-0.86c18.51-5.58,37.43-9.41,56.44-12.8
			c10.59-1.87,21.07-4.04,31.07-8.12c6.55-2.66,12.52-6.12,17.42-11.3c5.03-5.28,8.03-11.57,7.95-18.81
			c-0.04-5.3-1.27-10.59-2.06-15.85c-0.06-0.39-0.75-0.69-1.48-1.27c-1.46,1.42-2.88,2.96-4.47,4.32c-1.31,1.16-2.92,1.29-4.49,0.43
			c-1.16-0.62-1.46-2.79-0.54-4.36c3.59-6.14,8.74-10.09,16-10.8c1.25-0.13,2.66,0.21,3.87,0.67c1.85,0.71,2.23,3.37,0.67,4.68
			c-1.16,0.97-2.58,1.59-3.65,2.23c0.62,6.4,1.12,12.26,1.78,18.1c1.18,10.29-2.06,19.05-8.93,26.56
			c-4.6,5.03-10.16,8.76-16.32,11.57c-8.33,3.78-16.97,6.55-25.96,8.38c-17.89,3.61-35.71,7.43-53.56,11.21
			c-1.76,0.37-3.78,0.39-4.49,2.58c0.06,0.3,0.09,0.6,0.21,0.82c0.69,1.16,1.33,2.34,2.13,3.41c7.17,9.84,8.65,20.53,5.11,32.08
			c-5.97,19.5-11.81,39.02-19.95,57.79c-2.77,6.42-5.91,12.65-10.05,18.3c-7,9.51-14.13,18.92-21.17,28.37
			c-1.12,1.5-2.15,3.05-3.24,4.64c0.41,1.7,0.69,3.29,1.16,4.79c4.66,14.39,11.21,27.92,19.37,40.59c5.8,9,14.13,15.38,23.92,19.67
			c3.37,1.48,6.89,2.79,11.15,1.12c-1.22-3.54-2.25-6.83-3.5-10.03c-7.6-19.61-8.53-39.69-4.72-60.19
			c2.51-13.53,6.64-26.59,12.37-39.04c5.69-12.43,12.24-24.46,18.28-36.74c3.33-6.72,6.7-13.46,9.41-20.44
			c1.52-3.93,1.87-8.33,2.49-12.54c0.17-1.22-0.11-2.9-0.86-3.8c-3.67-4.51-7.56-8.85-11.68-13.57c-1.2,1.78-2.17,3.35-3.26,4.81
			c-1.61,2.1-4.02,2.71-5.56,1.52c-1.83-1.4-1.35-3.31-1.07-5.15c0.04-0.26,0.15-0.52,0.26-0.77c2.77-6.98,8.14-11.15,15.05-13.46
			c2.43-0.82,4.66-0.32,6.29,1.1c0.73,4.02-3.65,4.1-4.1,7.13c1.89,3.72,5.13,6.55,7.95,9.77c2.32,2.66,5.11,3.61,8.55,3.54
			c9.41-0.21,18.81-0.37,28.09-2.02c8.59-1.52,16.56-4.55,22.96-10.78c11.15-10.87,18.19-23.84,20.01-39.38
			c2.15-18.47-0.84-36.42-6.08-54.03c-1.42-4.79-4.45-9.11-6.89-13.57c-1.37-2.49-3.56-3.69-6.59-3.78
			c-4.02-0.11-8.03-0.67-12.03-1.16c-1.83-0.24-3.72-0.58-5.43-1.22c-2.56-0.97-3.05-4.42-0.79-5.8c1.78-1.05,3.87-1.87,5.91-2.19
			c9.88-1.5,19.37-4.21,28.54-8.16c13.19-5.67,25.15-13.23,35.43-23.32c9.23-9.04,15.78-19.74,18.9-32.23
			c9.84-39.28-1.55-71.94-31.4-98.63c-0.92-0.82-2.17-1.29-3.59-2.08c-0.11,1.33-0.28,2.1-0.21,2.86c0.24,2.51,0.49,5,0.73,7.49
			l-4.77,0.47c-0.41-4.49-1.4-9-2.86-13.53c-1.01-3.18-3.03-5.48-5.99-7.22c-14.22-8.31-29.12-14.95-45.14-18.9
			c-5.48-1.35-11.06-2.04-16.75-1.83c-8.25,0.3-15.12,3.63-20.72,9.41c-4.47,4.64-8.55,9.64-12.61,14.62
			c-7.19,8.78-12.65,18.64-17.97,28.6c-1.37,2.58-2.96,5.09-4.77,7.39c-1.05,1.35-2.83,1.48-4.42,0.64c-1.7-0.88-2.1-2.49-1.44-4.1
			c1.35-3.22,2.66-6.46,4.42-9.47c8.03-13.66,16.69-26.91,26.93-39.06c2.06-2.45,4.19-4.85,6.12-7.13
			c-0.58-4.51-3.87-5.95-7.17-7.13c-10.67-3.82-21.73-5.88-33.03-6.7c-13.38-0.94-25.4,2.92-36.34,10.59
			c-9.58,6.74-16.99,15.55-23.99,24.76c-1.29,1.7-2.23,3.69-3.09,5.65c-2.28,5.15-4.45,10.35-6.64,15.53
			c-5.71,13.46-7.07,27.47-5.22,41.85c0.11,0.97,0.56,1.91,0.94,3.18c1.35-0.26,2.38-0.37,3.35-0.69c1.52-0.52,2.96-1.27,4.49-1.74
			c1.95-0.6,4.38,0.56,5.43,2.43c0.88,1.5,0.26,3.56-1.72,4.79c-2.51,1.55-5.09,2.99-7.73,4.29c-9.38,4.7-19.13,4.6-29.03,2.02
			c-2.34-0.6-3.67-2.56-3.56-4.7c0.11-2.53,1.83-4.4,4.62-4.64c2.94-0.26,5.91-0.13,8.85-0.34c1.5-0.13,2.99-0.62,4.45-0.94
			c0-3.65,0.13-6.85-0.02-10.03c-0.79-17.72,1.4-34.83,9.62-50.83c0.43-0.84,0.32-1.95,0.49-3.07c-1.31-0.54-2.25-1.03-3.26-1.31
			c-9.51-2.77-19.03-5.65-28.6-8.22c-20.29-5.45-40.87-5.48-61.5-2.58c-7.99,1.12-15.68,3.59-22.91,7.3
			c-8.12,4.19-14.41,10.24-18.92,18.12c-3.37,5.91-2.77,11.1,1.63,16.34c0.69,0.82,1.44,1.59,2.23,2.32
			c4.7,4.45,8.5,9.6,12.37,14.77c7.3,9.75,13.44,20.06,17.48,31.57c0.17,0.45,0.69,0.79,1.33,1.5c1.55-0.45,3.29-1.03,5.03-1.48
			c2.06-0.52,4.19-1.18,6.42,0.94c-0.43,1.22-0.54,3.05-1.5,3.99c-2.1,2.02-4.51,3.8-7.02,5.3c-6.74,4.06-14.26,4.27-21.82,3.8
			c-0.92-0.06-2.08-1.55-2.49-2.62c-0.19-0.56,0.77-2.02,1.55-2.45c2.02-1.1,4.23-1.83,6.66-2.81c-1.12-6.81-3.59-12.76-5.82-18.73
			c-1.1-2.96-2.86-5.84-4.94-8.22c-5.6-6.49-11.53-12.71-17.42-18.96c-1.07-1.16-2.56-1.93-3.84-2.88
			c-7.19-5.3-15.61-7.34-24.18-7.8c-32.86-1.78-64.62,2.79-95.18,15.87c-25.32,10.82-46.34,26.78-63.26,48.32
			c-9.86,12.56-17.57,26.33-22.36,41.62c-3.97,12.71-5.99,25.81-3.44,38.93c4.51,23.26,15.87,43.12,32.15,60.24
			c2.04,2.13,4.34,4.02,6.7,5.78c12.82,9.49,26.67,16.94,42,21.65c15.81,4.87,32.08,6.18,48.43,7.28c1.07,0.09,2.19,0.09,3.22-0.13
			c11.55-2.47,23.11-5.03,33.41-11.12c15.16-8.93,27.92-20.85,40.46-33.01c2.23-2.19,4.32-4.68,5.5-8.8
			c-1.14-0.84-2.53-1.68-3.74-2.75c-0.97-0.88-2.02-1.91-2.49-3.09c-0.43-1.12-0.6-2.79-0.06-3.72c0.56-0.9,2.15-1.55,3.31-1.61
			c2.9-0.15,5.2,1.44,6.81,3.67c5.52,7.6,11.25,15.08,13.89,24.31c0.39,1.29,0.88,2.6,0.86,3.91c0,1.65-0.71,3.14-2.51,3.67
			c-1.78,0.54-3.24,0-4.1-1.59c-0.77-1.42-1.2-2.99-1.89-4.45c-1.22-2.62-2.53-5.2-4.08-8.33c-1.8,1.76-3.18,2.98-4.4,4.34
			c-2.56,2.75-4.79,5.86-7.6,8.31c-8.91,7.75-17.87,15.46-27.1,22.78c-6.44,5.11-11.4,11.36-15.96,18
			c-1.48,2.19-2.34,4.81-3.44,7.26c-0.97,2.19-0.43,4.14,1.01,5.99c3.99,5.13,8.87,9.26,14.26,12.91c3.61,2.45,6.91,3.2,11.21,1.29
			c11.47-5.15,23.56-8.93,33.87-16.49c2.15-1.57,4.66-2.64,6.96-4.04c3.91-2.34,7.86-4.62,11.64-7.17
			c10.11-6.81,18.25-15.63,26.2-24.82c10.82-12.52,17.7-26.78,21.2-42.8c1.48-6.87,2.1-13.79,0.56-20.77
			c-4.06-18.28-19.07-28.5-33.72-27.81c-1.61,0.09-3.24-0.11-4.83,0.09c-18.81,2.36-35.2,8.7-45.72,25.98
			c-10.5,17.2-24.59,31.07-41.49,42.05c-1.8,1.18-3.67,2.28-5.37,3.59c-5.37,4.17-11.51,6.81-17.91,8.93
			c-1.42,0.47-2.73,1.31-4.06,1.95c0.99,2.08,2.06,3.67,2.53,5.43c0.64,2.32-1.44,4.49-3.69,3.87c-1.74-0.49-3.67-1.25-4.9-2.47
			c-6.91-7.02-10.29-15.55-10.05-25.45c0.02-1.03,0.32-2.1,0.67-3.11c0.54-1.55,2.6-2.94,3.72-2.32c1.05,0.6,2.15,1.63,2.58,2.73
			c0.49,1.18,0.11,2.64,0.3,3.97c0.21,1.5,0.62,2.98,1.01,4.68c1.46-0.3,2.56-0.37,3.52-0.75c18.98-7.58,35.8-18.51,49.39-33.8
			c9.73-10.93,15.2-23.86,14.19-39.02c-1.46-21.93-16.75-39.08-42.82-36.1c-5.3,0.6-10.63,1.61-15.81,2.9
			c-24.57,6.18-44.65,19.28-59.87,39.62c-2.23,3.01-4.38,6.03-5.13,10.11c1.12,0.86,2.13,1.68,3.16,2.47
			c1.03,0.84,2.41,1.48,2.96,2.53C168.14,353.86,168.19,355.47,167.76,356.52z M698.83,210.97c8.72,17.5,11.27,36.27,9.34,55.64
			c-2.73,27.04-15.74,48.04-37.77,63.67c-8.12,5.76-16.66,10.76-25.92,14.52c-1.93,0.79-3.82,1.74-6.14,2.79
			c0.58,1.25,0.86,2.25,1.44,3.03c5.95,8.18,9.66,17.29,11.75,27.12c2.9,13.7,4.77,27.49,4.25,41.53
			c-0.69,19.09-7.82,35.41-20.55,49.44c-7.88,8.68-17.67,13.94-29.1,16.02c-5.26,0.97-10.61,1.48-15.96,1.85
			c-5.6,0.39-11.17,0.9-16.32,1.37c-0.62,1.01-1.1,1.44-1.16,1.93c-1.42,10.84-5.99,20.53-10.97,30.06
			c-3.97,7.62-8.16,15.12-12.03,22.78c-8.03,15.85-14.67,32.21-18.45,49.65c-4.36,20.16-3.76,39.99,3.87,59.36
			c1.18,2.99,2.3,6.01,3.39,9.04c3.05,8.57-2.45,15.53-10.48,15.78c-3.78,0.13-7.45-0.21-11.04-1.72
			c-12.86-5.37-23.97-13.08-32.49-24.27c-14.04-18.45-23.28-39.11-27.96-61.76c-4.34-21.07-7.37-42.31-6.59-63.91
			c0.17-4.55,0.6-9.11,0.84-13.66c0.17-2.88,0.9-5.78,0-8.91c-2.38,0-4.47-0.09-6.55,0.02c-14.04,0.75-27.87-0.52-41.49-4.06
			c-9.86-2.56-18.45-7.22-25.02-15.2c-0.49-0.6-1.16-1.07-2.13-1.93c-1.27,0.67-2.71,1.25-3.93,2.13
			c-19.93,14.3-42.2,19.11-66.34,16.64c-11.04-1.14-21.63-3.76-31.78-8.25c-17.48-7.73-30.39-19.91-37.43-37.9
			c-0.28-0.75-0.71-1.44-1.33-2.71c-3.97-0.21-8.2-0.43-12.43-0.71c-4.02-0.26-8.03-0.62-12.05-0.88
			c-16.41-1.03-32.45-3.99-47.91-9.75c-12.93-4.81-24.76-11.62-35.82-19.78c-7.6-5.63-14.09-12.41-19.54-20.16
			c-5.86-8.38-10.78-17.27-15.29-26.46c-11.53-23.54-11.73-47.59-3.35-71.94c2.43-7.07,5.48-14.04,9.15-20.55
			c19.11-33.93,46.51-58.48,82.91-72.93c20.38-8.12,41.25-13.55,63.18-14.75c9.9-0.54,19.82-1.07,29.74-1.07
			c8.05-0.02,16.06,0.97,24.14,4.02c0.73-1.35,1.7-2.62,2.13-4.04c4.53-15.1,14.52-25.45,28.39-32.23
			c9.99-4.87,20.72-7.28,31.76-8.27c12.86-1.18,25.75-0.86,38.61,0.17c4.51,0.37,9.04,1.22,13.44,2.38
			c11.15,2.92,22.2,6.14,33.31,9.26c2.32,0.64,4.62,1.31,7.3,2.06c1.48-1.57,3.01-3.01,4.36-4.6c5.88-7,12.26-13.44,19.48-19.13
			c14.45-11.38,30.6-16.32,48.9-14.19c8.55,1.01,16.99,2.56,25.17,5.22c7.22,2.34,13.96,5.56,18.68,12.2
			c1.72-0.45,3.24-0.79,4.75-1.25c10.01-2.99,20.08-2.81,30.24-0.77c21.95,4.38,41.81,13.51,59.85,26.56
			C678.94,180.39,690.56,194.41,698.83,210.97z"/>
		<g id="XMLID_280_">
			<g id="XMLID_281_">
				<g id="XMLID_269_">
					<path id="XMLID_129_" class="st0" d="M190.29,391.9c0.88,1.48,2.82,2.45,2.23,4.63c-0.79,1.07-1.34,2.13,0,3.2
						c3.41-0.65,6.22-2.6,9.07-4.39c7.5-4.69,15.11-9.24,22.36-14.3c8.34-5.82,15.76-12.77,22.58-20.33
						c1.21-1.34,2.45-2.67,3.73-3.94c0.7-0.69,1.47-0.22,2.12,0.18c0.87,0.54,1.96,1.12,1.61,2.36c-0.34,1.23-0.85,2.46-1.52,3.53
						c-2.1,3.33-4.92,6.02-7.79,8.7c-4.94,4.61-10.55,8.5-14.82,13.82c0,0-0.53,0.19-0.53,0.19c-1.03,0.23-1.8,0.82-2.38,1.69
						c0,0,0.13-0.11,0.13-0.11c-2.79,0.13-4.72,2.06-6.87,3.43c-8.7,5.54-17.02,11.71-26.94,15.83c1.7,1.15,3.01,1.95,4.22,2.9
						c0.72,0.56,0.5,1.44,0.1,2.09c-0.38,0.62-1.01,1.58-1.49,1.56c-4.13-0.18-8.27-0.4-12.37-0.91c-2.43-0.31-4.04-2.18-5.55-4.01
						c-0.97-1.17-1.11-2.36-0.21-3.52c2.88-3.67,5.83-7.29,8.75-10.93c0.31-0.93,1-1.5,1.85-1.92
						C189.19,391.45,189.76,391.53,190.29,391.9z"/>
				</g>
				<g id="XMLID_268_">
					<path id="XMLID_109_" class="st0" d="M516.79,351.36c-0.53-0.57-1-1.21-1.6-1.68c-1.91-1.51-1.18-3.1-0.23-4.72
						c-0.66-1.07-1.44-0.53-2.21-0.17c-10.69,4.79-20.35,11.42-30.51,17.15c-1.13,0.64-2.25,1.29-3.35,1.98
						c-1.86,1.16-3.44,0.58-4.97-0.67c-1.15-0.94-1.32-2.45-0.25-3.22c1.05-0.75,2.15-1.43,3.25-2.08
						c8.72-5.11,17.44-10.2,26.11-15.27c0.51-2.31-1.83-2.27-2.69-3.41c-1.07-1.4-0.13-2.38,0.22-3.53c0.18-0.27,0.36-0.53,0.54-0.8
						c1.06-0.77,2.29-1.21,3.49-1.7c0.61-0.25,1.25-0.44,1.9-0.58c2-0.54,3.96,0.18,5.95,0.16c3.88-0.15,7.64-0.96,11.38-1.93
						c1.24-0.32,2.51-0.7,3.76-0.71c2.74-0.01,4.58,2.91,3.54,5.44c-1.09,2.65-2.71,4.94-4.67,7.03c-1.74,1.86-3.87,3.45-4.67,6.06
						C520.38,350.09,518.72,350.98,516.79,351.36z"/>
				</g>
				<g id="XMLID_267_">
					<path id="XMLID_107_" class="st1" d="M506.14,592.21c0-2.85,0.03-4.13,0-5.41c-0.31-12.58,3.54-24.09,8.86-35.26
						c4.5-9.43,10.19-18.16,16.02-26.79c7.91-11.7,11.48-24.96,14.04-38.58c0.38-2.01,0.13-4.14,0.06-6.22
						c-0.03-1.03-0.4-2.04-0.48-3.07c-0.11-1.49,0.79-2.47,2.01-3.05c1.11-0.53,3.2,0.7,3.66,2.16c0.93,3,1.62,6.07,1.15,9.23
						c-0.5,3.34-0.86,6.74-1.79,9.98c-1.86,6.5-3.98,12.93-6.14,19.34c-1.42,4.22-3.79,7.98-6.19,11.71
						c-5.48,8.54-11.38,16.82-15.83,26c-3.2,6.58-5.89,13.31-7.75,20.4c-0.73,2.8-1.02,5.59-0.94,8.34c1.52,0.71,1.99-0.4,2.67-1.04
						c0.97-0.91,1.97-1.78,3.41-1.05c1.55,0.78,2.37,2.05,1.94,3.81c-0.49,2.02-1.06,4.03-1.71,6c-1.8,5.43-3.61,10.85-5.52,16.24
						c-0.89,2.49-2.74,2.96-4.88,1.32c-1.02-0.78-2.15-1.61-2.79-2.68c-3.07-5.16-6.53-10.03-10.27-14.71
						c-0.7-0.87-0.69-1.95,0.23-2.78c0.85-0.77,1.96-1.03,2.84-0.33C500.91,587.5,502.94,589.39,506.14,592.21z"/>
				</g>
				<g id="XMLID_266_">
					<path id="XMLID_105_" class="st0" d="M479.31,245.97c1.32-0.43,2.04-0.63,2.74-0.9c1.36-0.52,2.52-0.27,3.52,0.78
						c1.13,1.19,0.77,2.44-0.05,3.51c-2.87,3.77-4.65,8.07-6.42,12.42c-0.92,2.25-3.31,2.68-5.12,1.19
						c-0.4-0.33-0.84-0.66-1.12-1.08c-2.48-3.67-5.32-7.02-8.53-10.08c-0.82-0.78-0.96-1.72-0.14-2.7c0.74-0.89,1.67-1.25,2.74-1.08
						c1.8,0.29,2.84,2.33,5.36,2.16c0.5-4.51,1.09-9.1,1.51-13.7c1.48-16.14,4.54-31.91,10.83-46.94
						c5.84-13.94,13.93-26.12,26.75-34.72c8.51-5.71,17.93-8.06,28.04-8.13c2.39-0.02,4.71,0.35,6.48,2.13
						c0.47,0.48,0.88,1.42,0.73,1.99c-0.16,0.64-0.94,1.46-1.55,1.57c-1.52,0.26-3.11,0.22-4.66,0.18
						c-16.12-0.36-28.54,6.89-38.39,19.01c-5.27,6.49-9.21,13.85-12.28,21.65c-5.46,13.91-8.34,28.4-9.68,43.24
						C479.83,239.3,479.62,242.14,479.31,245.97z"/>
				</g>
				<g id="XMLID_265_">
					<path id="XMLID_103_" class="st1" d="M640.27,257.46c1.72-1.19,2.95-2.76,3.74-4.68c1.72-1.99,3.8-3.71,4.79-6.26
						c3.71-4.01,7.36-8.07,11.14-12.01c5.47-5.71,11.17-11.09,19.45-11c1.61-2.41,0.5-4.53,0.77-6.55c0.19-1.44,1.07-2.4,2.25-2.97
						c1.01-0.49,3.19,0.87,3.73,2.23c0.38,0.96,0.61,1.98,0.86,2.99c0.86,3.53,1.76,7.06,2.54,10.61c0.62,2.86-0.32,4.66-2.85,5.56
						c-2.93,1.04-5.89,2.02-8.87,2.93c-0.7,0.21-1.65,0.26-2.27-0.05c-0.89-0.43-1.82-1.12-2.31-1.95
						c-0.57-0.97-0.01-2.06,0.87-2.71c0.82-0.61,1.79-1.02,2.69-1.52c0.5-0.56,1.17-0.99,1.31-1.81c-1.39,0.1-2.9-0.67-4.11,0.62
						c-4.11,1.89-7.19,5.08-10.14,8.33c-7.14,7.87-14.26,15.78-20.24,24.6c-7.6,11.19-16.88,21.01-25.39,31.45
						c-0.97,1.19-2.17,2.22-3.34,3.24c-0.85,0.74-1.84,0.74-2.88,0.26c-2.18-1.02-2.49-2.97-1.32-4.31
						c4.95-5.66,9.77-11.42,14.69-17.1C630.79,271.06,635.82,264.48,640.27,257.46z"/>
				</g>
				<g id="XMLID_264_">
					<path id="XMLID_101_" class="st0" d="M589.52,396.36c-1.81,0.26-3.64,0.53-5.37-0.31c-1.2-0.59-2.22-1.44-2.08-2.96
						c0.1-1.13,0.92-1.95,1.9-2.24c2.49-0.75,5-1.46,7.56-1.9c4.35-0.76,8.74-1.33,13.12-1.94c1.02-0.14,2.07-0.22,3.09-0.14
						c1.88,0.16,3.28,2.11,2.62,3.86c-1.94,5.1-3.99,10.17-6.08,15.21c-0.48,1.15-1.12,2.4-2.82,2.06
						c-1.93-0.38-3.01-1.64-3.05-3.73c-0.01-0.5,0.36-0.99,0.38-1.5c0.03-1.26-0.95-1.89-1.97-1.26c-1.77,1.1-3.48,2.29-5.24,3.39
						c-9.17,5.75-19.44,8.66-29.72,11.56c-1.67,0.47-3.05-0.28-4.29-1.3c-1.29-1.06-1.07-3.32,0.42-3.87
						c1.21-0.44,2.5-0.62,3.74-0.99c10.25-3,20.45-6.13,29.43-12.18C591.7,396.52,591.36,395.74,589.52,396.36z"/>
				</g>
				<g id="XMLID_263_">
					<path id="XMLID_99_" class="st2" d="M289.16,234.31c-11.07-2-22.24-2.53-33.44-2.05c-25.59,1.09-49.97,6.88-72.14,20.11
						c-22.35,13.33-40.42,30.93-52.41,54.32c-0.56,1.1-0.91,2.48-2.76,2.58c-0.98-2.91-0.18-5.63,1.16-8.17
						c2.19-4.13,4.28-8.37,6.94-12.2c21.5-31.04,50.32-51.48,87.42-59.65c17.88-3.94,35.94-5.85,54.25-3.46
						c1.8,0.24,3.63,0.3,5.45,0.39c0.51,0.03,1.03-0.12,1.54-0.18c0.77-1.63-0.66-2.22-1.47-3.07c-1.07-1.13-2.36-2.1-3.2-3.37
						c-0.71-1.06-0.85-2.55-0.01-3.67c0.85-1.14,2.23-1.37,3.53-0.94c1.21,0.4,2.49,0.87,3.47,1.65
						c6.93,5.53,13.4,11.55,19.21,18.26c0.88,1.01,1.49,2.13,1.59,3.48c0.11,1.42-0.36,2.91-1.74,3.09
						c-6.17,0.82-12.37,1.47-18.57,2.02c-1.32,0.12-2.5-0.69-2.85-2.16c-0.25-1.05-0.16-2.09,0.66-2.89
						c0.55-0.54,1.19-0.98,1.81-1.45c0.62-0.47,1.26-0.91,1.89-1.36c0.65-0.19,0.77-0.56,0.36-1.1
						C289.75,234.35,289.5,234.31,289.16,234.31z"/>
				</g>
				<g id="XMLID_262_">
					<path id="XMLID_97_" class="st1" d="M354.99,386.33c-2.61,0.11-4.99,1.47-6.72-0.83c-0.65-0.86-1.25-1.9-0.36-2.78
						c4.06-4.02,8.18-7.98,12.34-11.9c0.85-0.81,1.91-0.5,2.87,0.08c1.64,0.99,2.73,2.37,3.2,4.24c1.28,5.03,2.63,10.05,3.85,15.09
						c0.26,1.06-0.47,1.97-1.3,2.66c-1,0.83-1.96,0.3-2.85-0.21c-1.91-1.1-2.27-3.43-3.95-5.14c-1.99,2.52-2.79,5.48-3.75,8.31
						c-4.52,13.39-11.96,24.78-22.74,33.97c-2.18,1.86-4.2,3.9-6.26,5.89c-2.47,2.4-5.35,4.15-8.5,5.45
						c-1.18,0.49-2.48,0.79-3.76,0.95c-1.93,0.23-4.07-0.9-4.65-2.25c-0.51-1.2,0.91-3.12,3.26-3.54c4.35-0.77,7.61-3.24,10.7-6.08
						c3.07-2.82,6.14-5.64,9.11-8.57C345.34,411.91,351.1,399.9,354.99,386.33z"/>
				</g>
				<g id="XMLID_6_">
					<path id="XMLID_95_" class="st0" d="M433.62,302.54c-5.34-7.11-11.13-13.74-18.85-18.43c-8.32-5.07-17.21-8.47-26.96-9.48
						c-2.57-0.27-5.16-0.61-7.67-1.17c-1.9-0.43-3.15-2.13-2.66-3.21c0.59-1.31,1.74-1.85,3.15-1.85c0.78,0,1.57-0.03,2.34,0.05
						c19.31,2.14,35.98,9.63,49.04,24.35c1.38,1.56,2.67,3.2,4.06,4.74c1.36,1.5,2.21,3.52,4.24,4.4c1.64-0.77,1.01-2.2,0.94-3.31
						c-0.13-2.06-0.63-4.1-0.73-6.16c-0.05-1.04,0.73-1.89,1.71-2.41c1.07-0.57,1.98-0.19,2.84,0.48c1.05,0.83,1.85,1.84,2.01,3.2
						c0.67,5.68,1.33,11.36,1.94,17.04c0.08,0.75-0.08,1.56-0.29,2.3c-0.4,1.41-1.36,2.14-2.88,1.98c-0.26-0.03-0.53-0.05-0.76-0.15
						c-4.52-1.98-9.1-3.78-13.97-4.79c-1.47-0.31-2.81-1.55-2.45-3.44c0.28-1.48,1.53-1.95,2.89-2.15
						C433.51,305.16,433.91,304.21,433.62,302.54z"/>
				</g>
			</g>
		</g>
		<g id="XMLID_261_">
			<g id="XMLID_278_">
				<path id="XMLID_40_" class="st3" d="M171.66,681.24c-1.38-0.04-3.22-2.55-2.45-4.58c0.64-1.68,1.51-3.42,2.72-4.71
					c5.22-5.56,10.57-10.98,15.93-16.4c1.89-1.91,4.06-3.36,7-2.81c1.21,0.22,1.91,0.89,1.61,2.12c-0.31,1.26-0.67,2.59-1.34,3.68
					c-4.55,7.44-9.97,14.19-16.54,19.96C176.8,680.05,174.85,681.4,171.66,681.24z"/>
			</g>
			<g id="XMLID_277_">
				<path id="XMLID_38_" class="st4" d="M145.34,587.81c-1.36-0.32-2.89-0.59-4.36-1.06c-1.54-0.5-2.92-1.47-3.11-3.16
					c-0.24-2.15,1.76-2.36,3.15-2.68c5.32-1.23,10.68-2.29,16.03-3.4c1.62-0.34,3.08,0.05,4.42,1.01c1.16,0.84,1.61,1.98,1.49,3.37
					c-0.12,1.38-0.66,2.44-2.08,2.96C155.92,586.66,150.59,586.42,145.34,587.81z"/>
			</g>
			<g id="XMLID_276_">
				<path id="XMLID_35_" class="st5" d="M271.82,689.75c0.26-3.27-0.57-6.76,1.33-9.94c0.96-1.6,2.79-1.8,3.77-0.19
					c3.56,5.88,4.18,12.35,3.5,18.99c-0.21,2.03-2.01,3.17-3.96,3.16c-1.82-0.01-2.81-1.07-3.57-2.6
					C271.41,696.17,271.98,692.98,271.82,689.75z"/>
			</g>
			<g id="XMLID_275_">
				<path id="XMLID_33_" class="st6" d="M433.5,654.05c3.65,0.43,7.14-0.15,10.28,1.51c1.38,0.73,2.71,1.6,2.51,3.53
					c-0.2,1.97-1.36,3.29-3.36,3.76c-0.25,0.06-0.51,0.21-0.75,0.19c-6.5-0.49-12.95-1.23-18.67-4.73
					c-0.51-0.31-0.75-1.27-0.82-1.96c-0.03-0.29,0.67-0.78,1.13-0.97c0.95-0.38,1.95-0.79,2.96-0.89
					C429.11,654.25,431.46,654.18,433.5,654.05z"/>
			</g>
			<g id="XMLID_274_">
				<path id="XMLID_31_" class="st5" d="M350.43,675.3c0.17-0.77,0.32-1.53,0.51-2.28c0.21-0.83,1.99-1.31,2.61-0.65
					c0.89,0.95,1.88,1.88,2.48,3.01c2.2,4.15,4.28,8.38,6.37,12.59c0.82,1.64,0.35,3.01-1,4.16c-1.39,1.19-2.84,1.13-4.33,0.23
					c-1.37-0.84-2.47-1.96-3.08-3.45C352.2,684.54,350.78,680.07,350.43,675.3z"/>
			</g>
			<g id="XMLID_273_">
				<path id="XMLID_16_" class="st7" d="M183.49,497.92c0.36,0.09,1.45,0.13,2.33,0.59c4.69,2.43,8.39,6.12,12.07,9.79
					c0.52,0.52,0.81,1.34,1.01,2.07c0.38,1.37-0.06,2.53-1.17,3.46c-0.92,0.77-1.88,0.72-2.88,0.27c-0.94-0.43-1.93-0.82-2.77-1.41
					c-4.34-3.01-7.88-6.77-10.35-11.47C181.11,500.04,181.83,498.07,183.49,497.92z"/>
			</g>
			<g id="XMLID_272_">
				<path id="XMLID_14_" class="st8" d="M272.86,508.16c0.04-0.43,0.11-2.27,0.47-4.06c0.13-0.63,0.87-1.42,1.48-1.6
					c0.58-0.17,1.64,0.16,2.01,0.64c1.11,1.44,2.15,2.99,2.92,4.63c1.85,3.93,2.04,8.13,1.55,12.37c-0.15,1.33-0.63,2.68-2.11,3
					c-1.77,0.38-2.97-0.67-3.84-2.11C273.2,517.49,273.21,513.5,272.86,508.16z"/>
			</g>
			<g id="XMLID_271_">
				<path id="XMLID_12_" class="st7" d="M386.88,506.2c0.28,3.19-1.21,5.44-2.28,7.8c-1.09,2.39-2.53,4.6-4.47,6.41
					c-1.2,1.12-2.56,1.85-4.25,1.09c-1.54-0.7-2.37-2.75-1.56-4.76c1.98-4.96,4.97-9.17,9.76-11.85
					C385.26,504.22,386.86,505.25,386.88,506.2z"/>
			</g>
			<g id="XMLID_270_">
				<path id="XMLID_10_" class="st9" d="M412.7,573.99c-1.95-0.27-3.17-0.66-3.59-2.14c-0.45-1.59-0.48-3.24,0.99-4.25
					c3.5-2.41,7.55-3.48,11.69-4.11c0.9-0.14,2,0.5,2.9,0.98c1.01,0.53,1.61,1.56,0.86,2.57
					C422.24,571.55,417.45,573.29,412.7,573.99z"/>
			</g>
		</g>
	</g>
</g>
<g id="Designed_by_Freepik">
</g>
</svg>
